<?xml version="1.0" encoding="utf-8"?>
<!-- Generator: Adobe Illustrator 21.0.2, SVG Export Plug-In . SVG Version: 6.00 Build 0)  -->
<svg version="1.1" id="Capa_1" xmlns="http://www.w3.org/2000/svg" xmlns:xlink="http://www.w3.org/1999/xlink" x="0px" y="0px"
	 viewBox="0 0 112.2 112.2" style="enable-background:new 0 0 112.2 112.2;" xml:space="preserve">
<style type="text/css">
	.st0{fill:#00C200;}
	.st1{fill:#FFFFFF;}
	.st2{fill:#00C500;}
</style>
<g>
	<circle class="st0" cx="56.1" cy="56.1" r="56.1"/>
</g>
<g>
	<path class="st1" d="M88.6,58.1c0.1-0.8,0.2-1.4,0.3-1.9c0.1-0.8,0-2.1,0-2.5C88,40.2,74,29.5,56.9,29.5C39.3,29.5,25,40.9,25,54.9
		C25,67.8,37.1,78.4,52.7,80c1,0.1,1.6,1,1.5,1.9l-0.7,6c-0.2,1.4,1.3,2.3,2.5,1.8c13.2-6.4,21.1-12.9,25.8-18.6c0.9-1,3.7-5,4.2-6
		C87.3,62.9,88.2,60.6,88.6,58.1z"/>
	<path class="st2" d="M39.4,60V49.3c0-0.9-0.7-1.6-1.6-1.6l0,0c-0.9,0-1.6,0.7-1.6,1.6v12.3c0,0.9,0.7,1.6,1.6,1.6h6.5
		c0.9,0,1.6-0.7,1.6-1.6l0,0c0-0.9-0.7-1.6-1.6-1.6H39.4z"/>
	<path class="st2" d="M49.5,63.3h-0.7c-0.7,0-1.3-0.6-1.3-1.3V49c0-0.7,0.6-1.3,1.3-1.3h0.7c0.7,0,1.3,0.6,1.3,1.3v13
		C50.7,62.7,50.2,63.3,49.5,63.3z"/>
	<path class="st2" d="M62.6,49.3v7.5c0,0-6.5-8.5-6.6-8.6c-0.3-0.3-0.8-0.6-1.3-0.5c-0.9,0-1.6,0.8-1.6,1.7v12.2
		c0,0.9,0.7,1.6,1.6,1.6l0,0c0.9,0,1.6-0.7,1.6-1.6v-7.5c0,0,6.6,8.6,6.7,8.7c0.3,0.3,0.7,0.4,1.1,0.4c0.9,0,1.6-0.8,1.6-1.7V49.3
		c0-0.9-0.7-1.6-1.6-1.6l0,0C63.4,47.7,62.6,48.4,62.6,49.3z"/>
	<path class="st2" d="M78.1,49.3L78.1,49.3c0-0.9-0.7-1.6-1.6-1.6H70c-0.9,0-1.6,0.7-1.6,1.6v12.3c0,0.9,0.7,1.6,1.6,1.6h6.5
		c0.9,0,1.6-0.7,1.6-1.6l0,0c0-0.9-0.7-1.6-1.6-1.6h-4.9v-2.9h4.9c0.9,0,1.6-0.7,1.6-1.6l0,0c0-0.9-0.7-1.6-1.6-1.6h-4.9V51h4.9
		C77.4,51,78.1,50.2,78.1,49.3z"/>
</g>
</svg>
