<?xml version="1.0" encoding="utf-8"?>
<!-- Generator: Adobe Illustrator 21.0.2, SVG Export Plug-In . SVG Version: 6.00 Build 0)  -->
<svg version="1.1" id="Capa_1" xmlns="http://www.w3.org/2000/svg" xmlns:xlink="http://www.w3.org/1999/xlink" x="0px" y="0px"
	 viewBox="0 0 112.2 112.2" style="enable-background:new 0 0 112.2 112.2;" xml:space="preserve">
<style type="text/css">
	.st0{fill:#FFDB58;}
	.st1{fill:#FFFFFF;}
</style>
<g>
	<circle class="st0" cx="56.1" cy="56.1" r="56.1"/>
</g>
<g>
	<path class="st1" d="M79.1,79.6c1.3,0,2.3-0.4,3.3-1.2L66.5,62.5c-0.4,0.3-0.8,0.5-1.1,0.8c-1.2,0.9-2.2,1.6-2.9,2
		c-0.7,0.5-1.7,1-3,1.5c-1.2,0.5-2.4,0.8-3.4,0.8H56c-1.1,0-2.2-0.3-3.4-0.8s-2.2-1-3-1.5c-0.7-0.5-1.7-1.2-2.9-2
		c-0.3-0.2-0.7-0.5-1.1-0.8L29.8,78.3c0.9,0.8,2,1.2,3.3,1.2L79.1,79.6L79.1,79.6z"/>
	<path class="st1" d="M31.3,52.5c-1.2-0.8-2.2-1.7-3.2-2.7v24.1l14-14C39.3,58,35.7,55.5,31.3,52.5L31.3,52.5z"/>
	<path class="st1" d="M81,52.5c-4.3,2.9-7.9,5.4-10.8,7.4l14,14V49.8C83.2,50.8,82.2,51.7,81,52.5L81,52.5z"/>
	<path class="st1" d="M79.1,35.6h-46c-1.6,0-2.8,0.5-3.7,1.6c-0.9,1.1-1.3,2.4-1.3,4.1c0,1.3,0.6,2.7,1.7,4.3
		c1.1,1.5,2.4,2.7,3.7,3.6c0.7,0.5,2.8,2,6.4,4.5c1.9,1.3,3.6,2.5,5,3.5c1.2,0.9,2.3,1.6,3.2,2.2c0.1,0.1,0.3,0.2,0.5,0.3
		c0.2,0.2,0.5,0.4,0.9,0.6c0.7,0.5,1.2,0.9,1.7,1.2c0.4,0.3,1,0.6,1.6,1s1.2,0.7,1.8,0.8c0.6,0.2,1.1,0.3,1.6,0.3h0.1
		c0.5,0,1-0.1,1.6-0.3s1.2-0.5,1.8-0.8c0.6-0.4,1.2-0.7,1.6-1c0.4-0.3,1-0.7,1.7-1.2c0.3-0.3,0.6-0.5,0.9-0.6
		c0.2-0.1,0.4-0.3,0.5-0.3c0.7-0.5,1.7-1.2,3.2-2.2c2.6-1.8,6.4-4.4,11.5-8c1.5-1.1,2.8-2.3,3.8-3.8s1.5-3.1,1.5-4.7
		c0-1.4-0.5-2.6-1.5-3.5C81.6,36.1,80.4,35.6,79.1,35.6L79.1,35.6z"/>
</g>
</svg>
