<?xml version="1.0" encoding="utf-8"?>
<!-- Generator: Adobe Illustrator 21.0.2, SVG Export Plug-In . SVG Version: 6.00 Build 0)  -->
<svg version="1.1" id="Capa_1" xmlns="http://www.w3.org/2000/svg" xmlns:xlink="http://www.w3.org/1999/xlink" x="0px" y="0px"
	 viewBox="0 0 112.2 112.2" style="enable-background:new 0 0 112.2 112.2;" xml:space="preserve">
<style type="text/css">
	.st0{fill:#55ACEE;}
	.st1{clip-path:url(#SVGID_2_);fill:#FFFFFF;}
</style>
<g>
	<circle class="st0" cx="56.1" cy="56.1" r="56.1"/>
</g>
<g>
	<g>
		<defs>
			<rect id="SVGID_1_" x="27.9" y="28.1" width="57.8" height="57.8"/>
		</defs>
		<clipPath id="SVGID_2_">
			<use xlink:href="#SVGID_1_"  style="overflow:visible;"/>
		</clipPath>
		<path class="st1" d="M85.7,73.7c0.1,0.9-0.2,1.8-0.9,2.4l-8.1,8.1c-0.4,0.4-0.8,0.8-1.4,1c-0.6,0.3-1.2,0.5-1.7,0.6
			c0,0-0.2,0-0.4,0c-0.2,0-0.5,0-0.8,0c-0.8,0-2-0.1-3.8-0.4c-1.7-0.3-3.9-0.9-6.4-2c-2.5-1-5.4-2.6-8.5-4.7
			c-3.2-2.1-6.6-4.9-10.2-8.6c-2.9-2.8-5.2-5.5-7.1-8.1c-1.9-2.6-3.4-4.9-4.5-7.1c-1.1-2.2-2-4.2-2.6-5.9c-0.6-1.8-1-3.3-1.2-4.6
			c-0.2-1.3-0.3-2.3-0.2-3c0-0.7,0.1-1.1,0.1-1.2c0.1-0.6,0.3-1.2,0.6-1.7c0.3-0.6,0.6-1.1,1-1.4l8.1-8.1c0.6-0.6,1.2-0.9,2-0.9
			c0.5,0,1,0.2,1.4,0.5c0.4,0.3,0.8,0.7,1,1.1l6.5,12.4c0.4,0.7,0.5,1.4,0.3,2.1c-0.2,0.8-0.5,1.4-1,2l-3,3
			c-0.1,0.1-0.2,0.2-0.2,0.4c-0.1,0.2-0.1,0.3-0.1,0.5c0.2,0.9,0.5,1.8,1.1,2.9c0.5,1,1.2,2.2,2.3,3.6c1,1.4,2.5,3,4.3,4.9
			c1.8,1.9,3.5,3.3,4.9,4.4c1.4,1,2.6,1.8,3.6,2.3c1,0.5,1.7,0.8,2.2,0.9l0.8,0.2c0.1,0,0.2,0,0.4-0.1c0.2-0.1,0.3-0.1,0.4-0.2
			l3.5-3.5c0.7-0.7,1.6-1,2.6-1c0.7,0,1.2,0.1,1.7,0.4h0.1l11.8,7C85,72.2,85.5,72.9,85.7,73.7L85.7,73.7z M85.7,73.7"/>
	</g>
</g>
</svg>
